# xmcd
#
# Track frame offsets: 
#        150
#        10680
#        33627
#        49950
#        67578
#        78544
#        95901
#        109469
#        130913
#        160084
#        173783
#        191528
#        207009
#
# Disc length: 3070 seconds
#
# Revision: 0
# Processed by: cddbd v1.5.2PL0 Copyright (c) Steve Scherf et al.
# Submitted via: ExactAudioCopy v0.99pb4
#
DISCID=ac0bfc0d
DTITLE=Ron Hacker - My Songs
DYEAR=2009
DGENRE=Blues
TTITLE0=I Do Not Dance with Short Girls 
TTITLE1=My Bad Boy
TTITLE2=Yank Told Me
TTITLE3=Blues for Yank
TTITLE4=Big Brown Eyes
TTITLE5=Hear Me Sing Like Elmore James
TTITLE6=I Got Tattooed
TTITLE7=Mambo for Albert
TTITLE8=Diddley Widdley
TTITLE9=Two Timin' Woman
TTITLE10=Mailman Blues
TTITLE11=Prison Mind
TTITLE12=Watch What You Say
EXTD=
EXTT0=
EXTT1=
EXTT2=
EXTT3=
EXTT4=
EXTT5=
EXTT6=
EXTT7=
EXTT8=
EXTT9=
EXTT10=
EXTT11=
EXTT12=
PLAYORDER=
